<svg xmlns="http://www.w3.org/2000/svg" viewBox="0 0 100 100"><defs><linearGradient id="c" x1="0" y1="0" x2="0" y2="1"><stop offset="0" stop-color="#0A1422"/><stop offset="1" stop-color="#1E3A58"/></linearGradient><linearGradient id="fd" gradientUnits="userSpaceOnUse" x1="50" y1="30" x2="100" y2="30"><stop offset="0" stop-color="#FFD54A" stop-opacity=".8"/><stop offset="1" stop-color="#FFD54A" stop-opacity="0"/></linearGradient><linearGradient id="fg" gradientUnits="userSpaceOnUse" x1="50" y1="30" x2="0" y2="30"><stop offset="0" stop-color="#FFD54A" stop-opacity=".8"/><stop offset="1" stop-color="#FFD54A" stop-opacity="0"/></linearGradient><radialGradient id="h" cx="50" cy="30" r="17" gradientUnits="userSpaceOnUse"><stop offset="0" stop-color="#FFE9A0" stop-opacity=".95"/><stop offset="1" stop-color="#FFE9A0" stop-opacity="0"/></radialGradient></defs><rect width="100" height="100" fill="url(#c)"/><circle cx="10" cy="7" r="0.7" fill="#FFFFFF" opacity=".85"/><circle cx="24" cy="4" r="0.5" fill="#FFFFFF" opacity=".85"/><circle cx="33" cy="11" r="0.6" fill="#FFFFFF" opacity=".85"/><circle cx="68" cy="6" r="0.6" fill="#FFFFFF" opacity=".85"/><circle cx="80" cy="4" r="0.8" fill="#FFFFFF" opacity=".85"/><circle cx="91" cy="9" r="0.5" fill="#FFFFFF" opacity=".85"/><circle cx="14" cy="54" r="0.5" fill="#FFFFFF" opacity=".85"/><circle cx="87" cy="60" r="0.6" fill="#FFFFFF" opacity=".85"/><circle cx="25" cy="66" r="0.4" fill="#FFFFFF" opacity=".85"/><polygon points="50,30 100,12 100,44" fill="url(#fd)"/><polygon points="50,30 0,14 0,42" fill="url(#fg)"/><path d="M0 83 q12.5 5 25 0 t25 0 t25 0 t25 0 V100 H0 Z" fill="#1F3D5C"/><polygon points="40,36 60,36 65.0,96 35.0,96" fill="#F2F3EF"/><polygon points="39.2,46 60.8,46 61.5,54 38.5,54" fill="#E4322B"/><polygon points="37.7,64 62.3,64 63,72 37,72" fill="#E4322B"/><rect x="42" y="24" width="16" height="12" fill="#F4B400"/><circle cx="50" cy="30" r="17" fill="url(#h)"/><polygon points="39,24 61,24 50,15" fill="#E4322B"/><rect x="37" y="35" width="26" height="3" fill="#E4322B"/><path d="M0 89 q12.5 -6 25 0 t25 0 t25 0 t25 0 V100 H0 Z" fill="#2B4E6C"/><path d="M0 89 q12.5 -6 25 0 t25 0 t25 0 t25 0" fill="none" stroke="#9CC3E0" stroke-width="1.3"/></svg>